<svg xmlns="http://www.w3.org/2000/svg" xmlns:xlink="http://www.w3.org/1999/xlink" version="1.1" width="256" height="256" viewBox="0 0 256 256" xml:space="preserve">

<defs>
</defs>
<g style="stroke: none; stroke-width: 0; stroke-dasharray: none; stroke-linecap: butt; stroke-linejoin: miter; stroke-miterlimit: 10; fill: none; fill-rule: nonzero; opacity: 1;" transform="translate(1.4065934065934016 1.4065934065934016) scale(2.81 2.81)" >
	<circle cx="45" cy="45" r="45" style="stroke: none; stroke-width: 1; stroke-dasharray: none; stroke-linecap: butt; stroke-linejoin: miter; stroke-miterlimit: 10; fill: rgb(32,196,203); fill-rule: nonzero; opacity: 1;" transform="  matrix(1 0 0 1 0 0) "/>
	<path d="M 64.425 50.269 c -1.657 0 -3 -1.343 -3 -3 c 0 -10.802 -8.789 -19.591 -19.591 -19.591 c -10.803 0 -19.591 8.789 -19.591 19.591 c 0 1.657 -1.343 3 -3 3 s -3 -1.343 -3 -3 c 0 -14.111 11.48 -25.591 25.591 -25.591 c 14.111 0 25.591 11.48 25.591 25.591 C 67.425 48.926 66.082 50.269 64.425 50.269 z" style="stroke: none; stroke-width: 1; stroke-dasharray: none; stroke-linecap: butt; stroke-linejoin: miter; stroke-miterlimit: 10; fill: rgb(27,167,173); fill-rule: nonzero; opacity: 1;" transform=" matrix(1 0 0 1 0 0) " stroke-linecap="round" />
	<path d="M 21.219 63.656 h -1.531 c -3.403 0 -6.187 -2.784 -6.187 -6.187 v -7.371 c 0 -3.403 2.784 -6.187 6.187 -6.187 h 1.531 c 1.369 0 2.489 1.12 2.489 2.489 v 14.768 C 23.708 62.536 22.588 63.656 21.219 63.656 z" style="stroke: none; stroke-width: 1; stroke-dasharray: none; stroke-linecap: butt; stroke-linejoin: miter; stroke-miterlimit: 10; fill: rgb(27,167,173); fill-rule: nonzero; opacity: 1;" transform=" matrix(1 0 0 1 0 0) " stroke-linecap="round" />
	<path d="M 21.219 64.655 h -1.531 c -3.963 0 -7.188 -3.225 -7.188 -7.188 v -7.371 c 0 -3.963 3.224 -7.188 7.188 -7.188 h 1.531 c 1.924 0 3.489 1.565 3.489 3.489 v 14.768 C 24.708 63.09 23.143 64.655 21.219 64.655 z M 19.688 44.909 c -2.86 0 -5.188 2.327 -5.188 5.188 v 7.371 c 0 2.86 2.327 5.188 5.188 5.188 h 1.531 c 0.821 0 1.489 -0.668 1.489 -1.489 V 46.398 c 0 -0.821 -0.668 -1.489 -1.489 -1.489 H 19.688 z" style="stroke: none; stroke-width: 1; stroke-dasharray: none; stroke-linecap: butt; stroke-linejoin: miter; stroke-miterlimit: 10; fill: rgb(27,167,173); fill-rule: nonzero; opacity: 1;" transform=" matrix(1 0 0 1 0 0) " stroke-linecap="round" />
	<path d="M 62.448 43.909 h 1.531 c 3.403 0 6.187 2.784 6.187 6.187 v 7.371 c 0 3.403 -2.784 6.187 -6.187 6.187 h -1.531 c -1.369 0 -2.489 -1.12 -2.489 -2.489 V 46.398 C 59.959 45.029 61.079 43.909 62.448 43.909 z" style="stroke: none; stroke-width: 1; stroke-dasharray: none; stroke-linecap: butt; stroke-linejoin: miter; stroke-miterlimit: 10; fill: rgb(27,167,173); fill-rule: nonzero; opacity: 1;" transform=" matrix(1 0 0 1 0 0) " stroke-linecap="round" />
	<path d="M 63.979 64.655 h -1.531 c -1.924 0 -3.489 -1.565 -3.489 -3.489 V 46.398 c 0 -1.924 1.565 -3.489 3.489 -3.489 h 1.531 c 3.963 0 7.188 3.225 7.188 7.188 v 7.371 C 71.167 61.431 67.942 64.655 63.979 64.655 z M 62.448 44.909 c -0.821 0 -1.489 0.668 -1.489 1.489 v 14.768 c 0 0.821 0.668 1.489 1.489 1.489 h 1.531 c 2.86 0 5.188 -2.327 5.188 -5.188 v -7.371 c 0 -2.86 -2.327 -5.188 -5.188 -5.188 H 62.448 z" style="stroke: none; stroke-width: 1; stroke-dasharray: none; stroke-linecap: butt; stroke-linejoin: miter; stroke-miterlimit: 10; fill: rgb(27,167,173); fill-rule: nonzero; opacity: 1;" transform=" matrix(1 0 0 1 0 0) " stroke-linecap="round" />
	<path d="M 67.758 46.936 c -1.657 0 -3 -1.343 -3 -3 c 0 -10.803 -8.789 -19.591 -19.591 -19.591 c -10.803 0 -19.591 8.789 -19.591 19.591 c 0 1.657 -1.343 3 -3 3 s -3 -1.343 -3 -3 c 0 -14.111 11.48 -25.591 25.591 -25.591 c 14.111 0 25.591 11.48 25.591 25.591 C 70.758 45.592 69.415 46.936 67.758 46.936 z" style="stroke: none; stroke-width: 1; stroke-dasharray: none; stroke-linecap: butt; stroke-linejoin: miter; stroke-miterlimit: 10; fill: rgb(255,255,255); fill-rule: nonzero; opacity: 1;" transform=" matrix(1 0 0 1 0 0) " stroke-linecap="round" />
	<path d="M 24.552 60.322 h -1.531 c -3.403 0 -6.187 -2.784 -6.187 -6.187 v -7.371 c 0 -3.403 2.784 -6.187 6.187 -6.187 h 1.531 c 1.369 0 2.489 1.12 2.489 2.489 v 14.768 C 27.041 59.202 25.921 60.322 24.552 60.322 z" style="stroke: none; stroke-width: 1; stroke-dasharray: none; stroke-linecap: butt; stroke-linejoin: miter; stroke-miterlimit: 10; fill: rgb(255,255,255); fill-rule: nonzero; opacity: 1;" transform=" matrix(1 0 0 1 0 0) " stroke-linecap="round" />
	<path d="M 24.552 61.322 h -1.531 c -3.963 0 -7.188 -3.225 -7.188 -7.188 v -7.371 c 0 -3.963 3.224 -7.188 7.188 -7.188 h 1.531 c 1.924 0 3.489 1.565 3.489 3.489 v 14.768 C 28.041 59.757 26.476 61.322 24.552 61.322 z M 23.021 41.576 c -2.86 0 -5.188 2.327 -5.188 5.188 v 7.371 c 0 2.86 2.327 5.188 5.188 5.188 h 1.531 c 0.821 0 1.489 -0.668 1.489 -1.489 V 43.065 c 0 -0.821 -0.668 -1.489 -1.489 -1.489 H 23.021 z" style="stroke: none; stroke-width: 1; stroke-dasharray: none; stroke-linecap: butt; stroke-linejoin: miter; stroke-miterlimit: 10; fill: rgb(255,255,255); fill-rule: nonzero; opacity: 1;" transform=" matrix(1 0 0 1 0 0) " stroke-linecap="round" />
	<path d="M 65.781 40.576 h 1.531 c 3.403 0 6.187 2.784 6.187 6.187 v 7.371 c 0 3.403 -2.784 6.187 -6.187 6.187 h -1.531 c -1.369 0 -2.489 -1.12 -2.489 -2.489 V 43.065 C 63.292 41.696 64.412 40.576 65.781 40.576 z" style="stroke: none; stroke-width: 1; stroke-dasharray: none; stroke-linecap: butt; stroke-linejoin: miter; stroke-miterlimit: 10; fill: rgb(255,255,255); fill-rule: nonzero; opacity: 1;" transform=" matrix(1 0 0 1 0 0) " stroke-linecap="round" />
	<path d="M 67.313 61.322 h -1.531 c -1.924 0 -3.489 -1.565 -3.489 -3.489 V 43.065 c 0 -1.924 1.565 -3.489 3.489 -3.489 h 1.531 c 3.963 0 7.188 3.225 7.188 7.188 v 7.371 C 74.5 58.098 71.275 61.322 67.313 61.322 z M 65.781 41.576 c -0.821 0 -1.489 0.668 -1.489 1.489 v 14.768 c 0 0.821 0.668 1.489 1.489 1.489 h 1.531 c 2.86 0 5.188 -2.327 5.188 -5.188 v -7.371 c 0 -2.861 -2.327 -5.188 -5.188 -5.188 H 65.781 z" style="stroke: none; stroke-width: 1; stroke-dasharray: none; stroke-linecap: butt; stroke-linejoin: miter; stroke-miterlimit: 10; fill: rgb(255,255,255); fill-rule: nonzero; opacity: 1;" transform=" matrix(1 0 0 1 0 0) " stroke-linecap="round" />
</g>
</svg>